<?xml version="1.0" encoding="utf-8"?>
<!-- Generator: Adobe Illustrator 17.1.0, SVG Export Plug-In . SVG Version: 6.00 Build 0)  -->
<!DOCTYPE svg PUBLIC "-//W3C//DTD SVG 1.1//EN" "http://www.w3.org/Graphics/SVG/1.1/DTD/svg11.dtd">
<svg version="1.1" id="Layer_1" xmlns="http://www.w3.org/2000/svg" xmlns:xlink="http://www.w3.org/1999/xlink" x="0px" y="0px"
	 viewBox="0 0 192 64" enable-background="new 0 0 192 64" xml:space="preserve">
<g>
	<path fill="#417246" d="M12,51.7h17.2v-3.3c0.5,0.1,0.9,0.1,1.1-0.2c0.3-0.3,0.5-0.6,0.6-1.1c0.1-0.4,0.2-0.9,0.2-1.3
		c0-0.4,0-0.7,0-0.8h5l1.1,6.7h0.8v-3.1h8.1v-2.2h-6.1V45c0.2,0,0.6,0,1.1-0.1c0.5,0,1.1-0.1,1.7-0.1c0.6-0.1,1.2-0.1,1.7-0.2
		c0.5-0.1,0.9-0.1,1.1-0.2c0.4-0.1,0.8-0.2,1.1-0.5c0.3-0.2,0.7-0.5,1-0.8c0.3-0.3,0.7-0.5,1.1-0.7c0.4-0.2,0.8-0.3,1.3-0.3
		c0.1,0,0.2,0,0.3,0c0.1,0,0.2,0,0.2,0c1.3,0.3,2.3,0.6,2.9,0.8c0.6,0.2,1,0.4,1.2,0.8c0.2,0.3,0.3,0.8,0.2,1.5
		c-0.1,0.7-0.1,1.7-0.1,3.1h7.2v-6.1l1.4-0.6v-3.3h3.9l1.1,3.3l0.6-4.5c-0.1,0-0.2-0.1-0.3-0.3c-0.1-0.1-0.2-0.2-0.2-0.3
		c0-0.2-0.1-0.2-0.1-0.3c0,0,0-0.1,0.1-0.3c0,0,0.1-0.2,0.2-0.4c0.1-0.2,0.3-0.5,0.5-0.8c0.2-0.3,0.4-0.5,0.6-0.8
		c0.2-0.2,0.4-0.3,0.6-0.3c0.8,0,1.4,0.3,1.8,0.9c0.4,0.6,0.8,1.4,1,2.3c0.2,0.9,0.4,1.7,0.5,2.6c0.1,0.9,0.2,1.6,0.3,2h2v-8.4
		c0-0.4,0.1-0.7,0.4-0.9c0.3-0.2,0.6-0.4,1-0.5c0.4-0.1,0.8-0.2,1.2-0.2c0.4,0,0.7-0.1,0.9-0.1c0.7,0,1.2,0.1,1.7,0.2
		c0.5,0.1,0.9,0.6,1.2,1.5c0.3-0.3,0.5-0.6,0.5-0.8c0-0.2,0.1-0.5,0.1-0.8c0-0.9-0.1-1.7-0.3-2.5c-0.2-0.8-0.3-1.7-0.3-2.5H83
		l2.2,3.9c0.1,0.2,0.2,0.4,0.3,0.6c0.1,0.3,0.2,0.4,0.2,0.5c0.1,0.6,0.4,1,0.7,1.2c0.3,0.2,0.5,0.6,0.5,1c0,0.4-0.3,0.7-0.8,0.9
		c-0.5,0.2-1.1,0.3-1.6,0.3c-0.6,0.1-1.1,0.2-1.6,0.3c-0.5,0.1-0.7,0.4-0.6,0.7l1.1,6.7c0.1,0,0.2-0.1,0.3-0.3
		c0.1-0.1,0.2-0.2,0.2-0.3c0,0,0.1-0.2,0.1-0.4c0.1-0.2,0.1-0.5,0.2-0.7c0.1-0.3,0.1-0.5,0.1-0.7c0-0.2,0.1-0.4,0.1-0.4
		c0.1-0.1,0.3-0.2,0.5-0.3c0.2-0.1,0.5-0.2,0.8-0.3c0.3-0.1,0.5-0.2,0.8-0.2c0.2-0.1,0.4-0.1,0.5-0.1c0,0.2,0,0.5,0,1
		c0,0.5,0,1,0.1,1.6c0,0.6,0,1.1,0.1,1.6c0,0.5,0,0.9,0,1c0,0.3,0,0.6,0.1,0.9c0.1,0.4,0.1,0.7,0.2,1.1c0.1,0.4,0.1,0.7,0.2,0.9
		c0.1,0.3,0.1,0.4,0.1,0.4H89c0-0.6,0-1-0.1-1.3c-0.1-0.3-0.1-0.6-0.2-0.9c-0.1-0.3-0.2-0.7-0.2-1.1c-0.1-0.4-0.1-1-0.1-1.8H97v3.6
		h-2.2v1.4h5.3v-4.2h2.5V30.5c0-0.7,0.3-1.2,0.9-1.4c0.6-0.2,1.2-0.3,1.9-0.3h1.2h0.9c0.4,0,0.7,0.2,0.7,0.6c0.3-0.5,0.5-1,0.5-1.4
		c0.1-0.4,0.1-0.9,0.1-1.5c0-0.1,0-0.5-0.1-0.9c-0.1-0.2-0.4-0.3-0.9-0.5c-0.5-0.1-0.8-0.2-1-0.1v-5h-1.1v3.3h-1.4
		c0,0-0.1-0.1-0.1-0.4c-0.1-0.3-0.1-0.6-0.2-1.1c-0.1-0.4-0.1-0.8-0.2-1.3c-0.1-0.4-0.1-0.8-0.1-1.1v-1.2c0-0.4,0-0.9,0-1.5
		c0-0.5,0-1.1,0.1-1.5c0-0.5,0-0.9,0.1-1.3c0-0.4,0-0.7,0-0.9h-3.8c0.1-0.7,0.2-1.2,0.3-1.4c0-0.1,0.2-0.2,0.4-0.3
		c0.2-0.1,0.4-0.2,0.4-0.2V6.5h1.7V11h0.8V7h2.2v10h1.4v-3.9h5.9V19h2v3.9h2.5v3.9h-5v1.4h3.3v4.2h-3.2c-0.1,1-0.1,1.7-0.1,2
		c0.1,1,0.2,1.6,0.4,1.8c0.1,0.3,0.3,0.4,0.4,0.5c0.2,0.1,0.4,0.1,0.6,0.2c0.2,0.1,0.5,0.3,0.8,0.9h4.9c0-0.1,0-0.2-0.1-0.4
		c-0.1-0.2-0.1-0.4-0.2-0.7c-0.1-0.3-0.1-0.5-0.2-0.7c0-0.2,0-0.3,0-0.4c0.5-0.6,1-1.1,1.3-1.5c0.3-0.4,0.7-0.8,0.9-1.1
		c0.3-0.4,0.5-0.6,0.6-0.7c0,0,0.1-0.1,0.2-0.3c0.1-0.2,0.2-0.3,0.3-0.5c0.1-0.2,0.2-0.4,0.4-0.6c0.1-0.2,0.2-0.3,0.2-0.3
		c0.1,0,0.2-0.1,0.3-0.1c0,0,0.1,0,0.1,0c0.1,0,0.1,0,0.1,0c0.1,0.4,0.4,1,0.8,1.9c0.4,0.9,0.8,1.8,1.3,2.7c0.5,0.9,1,1.7,1.5,2.3
		c0.5,0.6,1,0.9,1.5,0.8v6.1c-0.3,0.1-0.4,0.2-0.5,0.4c-0.1,0.2-0.1,0.4-0.1,0.6c0,0.2,0.1,0.5,0.1,0.7c0.1,0.2,0.1,0.4,0.1,0.6
		c1.1,0,1.8-0.1,2-0.2c0.3-0.1,0.4-0.1,0.4-0.1v0.6c0,0.3,0.3,0.9,0.8,1.8c0.2,0,0.6,0,1.1,0c0.6,0,0.9,0,1.1,0c0.7,0,1.3,0,1.9,0
		c0.5,0,1.1-0.1,1.6-0.1c0.5-0.1,1.1-0.1,1.7-0.2c0.6-0.1,1.3-0.2,2.1-0.3c-0.1-1.2-0.1-2.2-0.1-3c0-0.9,0.2-1.6,0.5-2.1
		c0.3-0.6,0.8-1,1.5-1.2c0.7-0.3,1.6-0.4,2.8-0.4c0.7,0,1.4,0.2,1.9,0.7c0.5,0.5,1.1,0.8,1.7,1c0.3,0.1,0.8,0.2,1.4,0.3
		c0.7,0.1,1.3,0.2,2.1,0.3c0.7,0.1,1.4,0.2,2,0.3c0.6,0.1,1,0.1,1.2,0.2v1.4H150v1.6l26.2-3.6h2.8c0,0,0,0.1,0,0.3
		c0,0.1,0,0.2,0,0.3c0,0.1-0.1,0.4-0.2,0.9c-0.1,0.4-0.2,0.7-0.3,0.8c-0.4,0.9-0.8,1.9-1.4,3.2c-0.6,1.3-1.1,2.5-1.6,3.7
		c-0.5,1.2-1.2,2.6-2,4.3H12.7c0,0-0.1-0.1-0.1-0.3c-0.1-0.2-0.1-0.4-0.2-0.6c-0.1-0.2-0.1-0.5-0.2-0.7c-0.1-0.2-0.1-0.5-0.1-0.6
		c0-0.1,0-0.3,0-0.6c0-0.3,0-0.7-0.1-1c0-0.4,0-0.7-0.1-1C12,52,12,51.8,12,51.7z M112,23.8v1.1h2.8v-1.1H112z M112,19.9
		c-0.1,0-0.1,0-0.2,0.2c-0.1,0.2-0.1,0.4-0.1,0.7c0,0.2,0,0.4,0.1,0.6c0.1,0.2,0.1,0.2,0.2,0.2c0.2-0.1,0.3-0.4,0.3-0.8
		C112.3,20.3,112.2,20,112,19.9z"/>
</g>
</svg>
