<?xml version="1.0" encoding="utf-8"?>
<!-- Generator: Adobe Illustrator 17.1.0, SVG Export Plug-In . SVG Version: 6.00 Build 0)  -->
<!DOCTYPE svg PUBLIC "-//W3C//DTD SVG 1.1//EN" "http://www.w3.org/Graphics/SVG/1.1/DTD/svg11.dtd">
<svg version="1.1" id="Layer_1" xmlns="http://www.w3.org/2000/svg" xmlns:xlink="http://www.w3.org/1999/xlink" x="0px" y="0px"
	 viewBox="0 0 320 64" enable-background="new 0 0 320 64" xml:space="preserve">
<g>
	<path fill="#417246" d="M10,45.8c0-0.1,0-0.2,0-0.4c0-0.2,0-0.3,0-0.4l7.6-0.5h39.2c-0.2-0.3-0.5-0.5-0.9-0.7
		c-0.4-0.1-0.8-0.2-1-0.3c-0.3,0-0.9-0.1-1.7-0.1c-0.8-0.1-1.7-0.1-2.6-0.2c-0.9,0-1.8-0.1-2.6-0.1c-0.8,0-1.4,0-1.7,0
		c-0.1,0-0.3,0-0.5,0c-0.3,0-0.5,0-0.8,0c-0.3,0-0.5-0.1-0.7-0.2C44.1,43,44,42.8,44,42.5c0,0,0-0.1,0-0.1c0,0,0-0.1,0-0.1
		c0.4,0,1.1,0,2.1,0c1,0,2-0.1,3.1-0.1c1.1,0,2.2-0.1,3.1-0.2c1-0.1,1.7-0.1,2.1-0.1c0,0,0.1,0,0.3-0.1c0.2-0.1,0.4-0.1,0.6-0.2
		c0.2-0.1,0.4-0.1,0.6-0.2c0.2,0,0.3-0.1,0.4-0.1l6.1-0.9h0.2c0.8,0,1.7,0,2.5,0c0.8,0,1.5,0.2,2.1,0.4c0.6,0.2,1.1,0.6,1.5,1.1
		c0.4,0.5,0.6,1.3,0.7,2.2h0.2c0.3,0,0.7-0.1,1.1-0.2c0.4-0.1,0.8-0.3,1.2-0.6c0.4-0.2,0.7-0.5,1-0.8c0.3-0.3,0.6-0.6,0.7-1H79
		c-0.1,0-0.3-0.1-0.5-0.2c-0.2-0.1-0.5-0.2-0.7-0.2c-0.3-0.1-0.5-0.1-0.7-0.2c-0.2-0.1-0.4-0.1-0.5-0.1c-0.3,0-0.9-0.1-1.7-0.1
		c-0.8-0.1-1.7-0.1-2.6-0.2c-0.9,0-1.8-0.1-2.6-0.1c-0.8,0-1.4,0-1.7,0v-0.5c0.4,0,1,0,2,0c0.9,0,1.9-0.1,3-0.1c1.1,0,2-0.1,3-0.2
		c0.9-0.1,1.6-0.1,2-0.1c0.8-0.1,1.5-0.2,2.2-0.3c0.7-0.2,1.5-0.3,2.2-0.5c0.7-0.2,1.5-0.3,2.2-0.4c0.7-0.1,1.5-0.2,2.3-0.2h2.8
		c1.2,0,2,0.2,2.5,0.7c0.5,0.5,0.7,1.5,0.7,3c1,0,2-0.2,2.8-0.6c0.8-0.4,1.6-0.9,2.3-1.4c0.7-0.6,1.4-1.2,2-1.8
		c0.6-0.6,1.3-1.2,2.1-1.7c0.7-0.5,1.5-0.9,2.3-1.2c0.8-0.3,1.8-0.3,2.9-0.2l0.5-0.7h7.1c0.1,0,0.2-0.1,0.2-0.2
		c0.1-0.2,0.1-0.4,0.2-0.6c0-0.2,0.1-0.5,0.1-0.8c0-0.3,0-0.5,0-0.7v-0.6c0-0.4-0.1-0.7-0.3-1c-0.2-0.3-0.4-0.5-0.7-0.6
		c-0.3-0.2-0.5-0.3-0.7-0.5c-0.2-0.2-0.3-0.4-0.3-0.7c0-0.1,0-0.3,0.1-0.7c0.1-0.3,0.2-0.6,0.4-1c0.1-0.3,0.3-0.6,0.5-0.9
		c0.2-0.3,0.3-0.5,0.5-0.5v1.1c0,0,0.1,0,0.2-0.1c0.1-0.1,0.2-0.1,0.2-0.1c0.1,0.1,0.2,0.2,0.4,0.4c0.2,0.2,0.3,0.4,0.3,0.5v-2.4
		l0.7,2.4c0-0.1,0-0.3,0-0.5c0-0.2,0.1-0.5,0.1-0.7c0-0.3,0.1-0.5,0.1-0.7s0.1-0.4,0.2-0.5c0-0.1,0.2-0.1,0.5-0.2
		c0.3-0.1,0.4-0.2,0.5-0.2c0-0.1,0-0.2,0-0.2c0-0.2-0.1-0.4-0.2-0.4c-0.2,0-0.3-0.1-0.5-0.1c-0.2,0-0.4-0.1-0.5-0.1
		c-0.2-0.1-0.2-0.2-0.2-0.5c0-0.2,0.1-0.4,0.2-0.5c0.2-0.1,0.3-0.3,0.6-0.4c0.2-0.1,0.4-0.3,0.7-0.4c0.2-0.1,0.4-0.3,0.5-0.5
		c0.1-0.1,0.2-0.4,0.5-0.7c0.3-0.4,0.4-0.6,0.5-0.7c0.1,0.1,0.3,0.3,0.6,0.6c0.3,0.3,0.6,0.6,1,1c0.3,0.3,0.7,0.7,0.9,1
		c0.3,0.3,0.4,0.6,0.4,0.7c0,0.8-0.5,1.1-1.5,0.9c0,0.1,0,0.3,0,0.6c0,0.3,0,0.5,0,0.6c0,0.5,0.1,0.9,0.2,1.3
		c0.2,0.4,0.4,0.8,0.6,1.2c0.2,0.4,0.5,0.8,0.8,1.2c0.3,0.4,0.6,0.8,0.8,1.3l0.5-0.5h8c0.1,0,0.1-0.1,0.2-0.3
		c0.1-0.2,0.2-0.5,0.3-0.8c0.1-0.3,0.2-0.6,0.3-0.9c0.1-0.3,0.1-0.6,0.2-0.8c0,0,0-0.1-0.1-0.3c0-0.1-0.1-0.3-0.2-0.4
		c-0.1-0.2-0.1-0.3-0.2-0.4c0-0.1-0.1-0.2-0.1-0.3c0-0.2,0-0.5,0-1.1c0-0.5,0-1.1-0.1-1.6c0-0.6-0.1-1.1-0.1-1.6c0-0.5,0-0.8,0-1
		c0.3,0,0.6,0,0.9,0.1c0.4,0,0.6,0.2,0.7,0.5c0.3-0.3,0.4-0.6,0.4-0.9c0-0.3,0-0.6,0-0.9c0-0.3,0-0.6,0-0.8c0-0.3,0-0.5,0.1-0.7
		c0.1-0.2,0.3-0.3,0.5-0.4V13h-4.4c0-0.1,0-0.3,0-0.5c0-0.2,0-0.5,0.1-0.7c0-0.3,0.1-0.5,0.1-0.7c0-0.2,0-0.4,0-0.5
		c0-0.1,0.1-0.2,0.2-0.3c0.1-0.1,0.2-0.2,0.3-0.2c0.2,0,0.4-0.1,0.8-0.1c0.4,0,0.8-0.1,1.3-0.1c0.5,0,0.9-0.1,1.3-0.1
		c0.4,0,0.7-0.1,0.9-0.1h0.2h0.2c0,0.1,0.1,0.3,0.1,0.6c0.1,0.3,0.1,0.7,0.1,1c0,0.4,0.1,0.7,0.1,1c0,0.3,0.1,0.5,0.1,0.7
		c0,0.1,0,0.3,0,0.7c0,0.4,0,0.6,0,0.7c0.1,0,0.2-0.1,0.5-0.2c0.3-0.2,0.4-0.2,0.5-0.1c0,0,0.1,0.1,0.1,0.2c0,0.1,0.1,0.3,0.1,0.4
		c0,0.2,0.1,0.3,0.1,0.5c0,0.1,0.1,0.2,0.1,0.3c0.1,0.1,0.2,0.3,0.4,0.7c0.2,0.4,0.4,0.6,0.5,0.7c0.3,0.4,0.6,0.9,0.7,1.5
		c0.1,0.6,0.2,1.1,0.3,1.7c0.1,0.6,0.2,1.1,0.4,1.7c0.2,0.5,0.5,1,1,1.3c0.1-0.4,0.3-0.8,0.6-1c0.3-0.3,0.7-0.4,1.1-0.4
		c0.3,0,0.5,0.1,0.7,0.3c0.2,0.2,0.4,0.4,0.5,0.7c0.1,0.3,0.3,0.5,0.4,0.8c0.1,0.3,0.3,0.5,0.5,0.6l0.9-0.9c0.3,0.3,0.7,0.6,1,1
		c0.3,0.4,0.5,0.9,0.5,1.3c0,0.3-0.1,0.6-0.3,0.9c-0.2,0.2-0.3,0.5-0.3,0.8c0,0.9,0.2,1.7,0.6,2.2c0.4,0.6,1,0.9,1.8,0.9
		c0.5,0,0.8-0.1,1-0.3c0.2-0.2,0.4-0.4,0.6-0.7c0.2-0.3,0.4-0.5,0.6-0.7c0.2-0.2,0.5-0.3,0.9-0.3c0.3,0,0.6,0.1,0.8,0.2
		c0.2,0.1,0.3,0.3,0.4,0.5c0.1,0.2,0.2,0.4,0.4,0.6c0.1,0.2,0.3,0.4,0.6,0.6c0.1,0,0.3,0,0.5-0.1c0.3,0,0.6-0.1,0.9-0.1
		c0.3,0,0.6-0.1,0.9-0.1c0.3,0,0.5-0.1,0.5-0.1c0,0,0.1,0,0.3-0.1c0.1,0,0.3-0.1,0.4-0.2c0.2-0.1,0.3-0.1,0.4-0.2
		c0.1,0,0.2-0.1,0.3-0.1c0.8,0,1.3,0.3,1.6,0.9c0.3,0.6,0.4,1.2,0.4,2c0,0.7,0,1.4,0,2c0,0.6,0.1,0.9,0.4,0.9h9.4
		c0.6,0,1.2,0.1,1.8,0.4c0.6,0.3,1.1,0.7,1.5,1.2h5.2c0.1,0.4,0.3,0.7,0.5,0.9c0.2,0.2,0.4,0.3,0.6,0.5c0.2,0.1,0.4,0.3,0.7,0.6
		c0.2,0.2,0.4,0.6,0.6,1.2h7.6v-2.8c0-0.1,0.3-0.2,0.8-0.4c0.6-0.1,1.2-0.2,1.9-0.3c0.7-0.1,1.4-0.2,2-0.2c0.6-0.1,1-0.1,1.2-0.1
		c1.6,0,3.2,0.1,4.8,0.3c1.6,0.2,3.2,0.4,4.7,0.7c1.6,0.2,3.2,0.5,4.8,0.6c1.6,0.2,3.2,0.3,4.8,0.3v0.7h-10.4c-0.1,0-0.3,0-0.5,0.1
		c-0.2,0.1-0.5,0.2-0.7,0.3c-0.3,0.1-0.5,0.2-0.7,0.4c-0.2,0.1-0.4,0.3-0.4,0.4h6.6c0,0.1,0.1,0.2,0.2,0.3c0.1,0.1,0.2,0.2,0.3,0.2
		c0.1,0.1,0.4,0.2,0.7,0.4c0.4,0.2,0.7,0.4,1.2,0.6c0.4,0.2,0.8,0.4,1.2,0.5c0.4,0.2,0.6,0.3,0.7,0.4c0,0,0.1,0,0.3,0
		c0.2,0,0.3-0.1,0.3-0.1c0-1.5,0.2-2.5,0.7-3c0.5-0.5,1.3-0.7,2.5-0.7h2.8c0.8,0,1.6,0.1,2.3,0.2c0.8,0.1,1.5,0.3,2.2,0.4
		c0.7,0.2,1.5,0.3,2.2,0.5c0.7,0.2,1.5,0.3,2.2,0.3c0.4,0,1.1,0.1,2.1,0.1c1,0.1,2,0.1,3.1,0.2c1.1,0,2.2,0.1,3.1,0.1
		c1,0,1.7,0,2.1,0v0.5c-0.4,0-0.9,0-1.4,0c-0.5,0-1,0-1.6,0c-1.6,0-3.2,0.1-5,0.3c-1.8,0.2-3.4,0.5-4.8,1.1h6.6
		c0,0.1,0.1,0.2,0.2,0.3c0.1,0.1,0.2,0.2,0.3,0.2c0.1,0.1,0.4,0.2,0.7,0.4c0.4,0.2,0.8,0.4,1.2,0.6c0.4,0.2,0.8,0.4,1.2,0.5
		c0.4,0.2,0.6,0.3,0.7,0.4c0,0,0.1,0,0.3,0c0.2,0,0.3-0.1,0.3-0.1c0-0.8,0-1.4-0.1-1.7c-0.1-0.4,0-0.7,0.1-0.8
		c0.1-0.2,0.4-0.3,0.8-0.3c0.4,0,1-0.1,1.9-0.3c0.1,0,0.3,0,0.6-0.1c0.3,0,0.6-0.1,1-0.2c0.3-0.1,0.7-0.1,1-0.2
		c0.3-0.1,0.6-0.1,0.7-0.1h0.2h0.2l6.1,0.9c0,0,0.1,0,0.3,0.1c0.2,0,0.4,0.1,0.6,0.2c0.2,0.1,0.4,0.1,0.6,0.2c0.2,0,0.3,0.1,0.4,0.1
		c0.4,0,1.1,0.1,2.1,0.1c1,0.1,2,0.1,3.1,0.2c1.1,0,2.1,0.1,3.1,0.1c1,0,1.7,0,2.1,0l0.5,0.5c-0.4,0.4-0.9,0.6-1.3,0.5
		c-0.5-0.1-1-0.1-1.5,0c-0.3,0-0.9,0-1.7,0c-0.8,0-1.7,0.1-2.6,0.1c-0.9,0.1-1.8,0.1-2.6,0.2c-0.8,0.1-1.4,0.1-1.7,0.1
		c-0.3,0.1-0.6,0.2-1,0.3c-0.4,0.1-0.7,0.3-0.9,0.7l19.4-0.2h1.4l19.8-0.2c0.5,0.3,1.1,0.5,1.8,0.5h1.9h0.6c0.3,0,0.5,0,0.8,0
		c0.3,0,0.5,0,0.7,0h0.3c0.3,0,0.6-0.1,1-0.2c0.4-0.1,0.6-0.2,0.6-0.3v-4.7l0.7,4.7c0.3-0.3,0.6-0.4,0.8-0.4c0.3,0,0.6-0.1,0.9-0.1
		c0.3,0,0.6,0,0.9,0.1c0.3,0.1,0.4,0.4,0.3,0.9l2.1-0.9V39l0.8,5.8l3-0.6V39l0.7,5.2h2.6v-2.8l0.2,3.8c0,0-0.1,0.2-0.4,0.4
		c-0.2,0.2-0.4,0.4-0.6,0.5c-0.8,0.7-1.8,1.5-3,2.4c-1.2,1-2.4,1.9-3.6,2.8c-1.2,0.9-2.2,1.7-3,2.3c-0.8,0.6-1.3,1-1.3,1H24.7
		c-0.7-0.3-1.6-0.6-2.6-0.9c-1-0.3-2.1-0.5-3.1-0.8c-1.1-0.3-2.2-0.6-3.2-0.9c-1.1-0.4-2-0.8-2.9-1.3c-0.8-0.5-1.5-1.2-2.1-2
		C10.3,47.8,10,46.9,10,45.8z M298.2,44.1c-0.3,0-0.4,0.2-0.4,0.5c0,0.3,0.1,0.5,0.4,0.5c0.3,0,0.4-0.2,0.4-0.5
		C298.6,44.3,298.4,44.1,298.2,44.1z M237.3,44.6c0.1-0.2,0-0.2-0.2-0.2c-0.2,0-0.3,0.1-0.2,0.2c0,0.2,0.1,0.2,0.2,0.2
		C237.1,44.9,237.2,44.8,237.3,44.6z M117.7,25.3v1.9c0.1,0,0.1-0.1,0.3-0.2c0.1-0.1,0.2-0.2,0.2-0.3v-0.2v-0.2
		c0-0.1-0.1-0.2-0.2-0.5C117.9,25.5,117.8,25.3,117.7,25.3z M114,24.8c0.2,0.1,0.2,0.1,0.2,0.2c0,0.1-0.1,0.2-0.2,0.2
		c-0.2,0.1-0.2,0-0.2-0.2C113.7,24.8,113.8,24.7,114,24.8z M80.4,41.8c0-0.1,0-0.1-0.1-0.1c-0.1,0-0.2,0-0.4,0c-0.1,0-0.2,0-0.4,0
		c-0.1,0-0.1,0.1-0.1,0.1c0.1,0.2,0.2,0.2,0.5,0.2C80.2,42,80.4,41.9,80.4,41.8z M68.6,44.6c0.1-0.2,0-0.2-0.2-0.2
		c-0.2,0-0.3,0.1-0.2,0.2c0.1,0.2,0.1,0.2,0.2,0.2C68.5,44.9,68.6,44.8,68.6,44.6z"/>
</g>
</svg>
