<?xml version="1.0" encoding="utf-8"?>
<!-- Generator: Adobe Illustrator 17.1.0, SVG Export Plug-In . SVG Version: 6.00 Build 0)  -->
<!DOCTYPE svg PUBLIC "-//W3C//DTD SVG 1.1//EN" "http://www.w3.org/Graphics/SVG/1.1/DTD/svg11.dtd">
<svg version="1.1" id="Layer_1" xmlns="http://www.w3.org/2000/svg" xmlns:xlink="http://www.w3.org/1999/xlink" x="0px" y="0px"
	 viewBox="0 0 128 64" enable-background="new 0 0 128 64" xml:space="preserve">
<g>
	<path fill="#417246" d="M10.6,50.4h1.9l-0.8-1c-0.1-0.5-0.1-0.9-0.2-1.2c0-0.3-0.1-0.7-0.1-1c0-0.4-0.1-0.6-0.1-0.9
		c0-0.2,0-0.5,0-1.1c0-0.6-0.1-1.2-0.1-1.8c0-0.6-0.1-1.3-0.1-1.8c0-0.6-0.1-0.9-0.1-1.1c0,0,0-0.2-0.1-0.5
		c-0.1-0.3-0.2-0.5-0.2-0.7l-0.4-0.8v-0.2c0-0.4,0.2-0.6,0.6-0.7c0.4-0.1,0.8-0.3,1.2-0.4c0.4-0.1,0.8-0.3,1.2-0.5
		c0.4-0.2,0.6-0.6,0.6-1.1c0-0.4-0.1-0.8-0.2-1.1c-0.1-0.3-0.3-0.7-0.4-1c-0.2-0.3-0.3-0.7-0.4-1c-0.1-0.3-0.2-0.7-0.2-1
		c0-0.4,0.2-0.7,0.5-0.9c0.3-0.2,0.7-0.4,1.1-0.5c0.4-0.1,0.9-0.2,1.3-0.2c0.5,0,0.8-0.1,1.1-0.1c0.1,0,0.3,0,0.6,0
		c0.3,0,0.5,0,0.6,0c0.2,0.3,0.3,0.6,0.4,1c0.1,0.4,0.2,0.8,0.2,1.2c0.1,0.4,0.1,0.8,0.1,1.2c0,0.4,0,0.6,0.1,0.9h2.7l0.8-0.8h6.8
		v-2.7c0,0,0.1-0.1,0.4-0.2c0.2-0.1,0.4-0.2,0.6-0.2l1.5-0.4c0.2,0,0.7-0.1,1.4-0.1v3.6h0.8v-5l1.9-0.8v-5.6H37v-0.8h-8.1v-1h8.3
		v-3.1c0-0.1,0.2-0.2,0.7-0.3c0.4-0.1,0.9-0.2,1.5-0.2c0.6-0.1,1.1-0.1,1.6-0.2c0.5,0,0.9-0.1,1.1-0.1c0.1,0,0.5,0,1,0.1
		c0.5,0.1,1.1,0.1,1.7,0.2c0.6,0.1,1.1,0.2,1.5,0.4c0.5,0.2,0.7,0.3,0.7,0.5v3.4c0.3,0.1,0.5,0.1,0.6,0c0.2,0,0.4-0.1,0.6-0.1
		c0.2,0,0.5-0.1,0.7-0.1c0.2,0,0.5-0.1,0.8-0.2v-14l0.6-0.4l0.6,0.4v14c0.1,0,0.3,0.1,0.7,0.1c0.3,0.1,0.6,0.1,1,0.2
		c0.3,0.1,0.7,0.2,1,0.2c0.3,0.1,0.6,0.1,0.7,0.1c0.2,0.1,0.3,0.2,0.4,0.4h7.2V10.7l0.6,1.2v9.8c0.8,0,1.2-0.1,1.4-0.2
		c0.1-0.1,0.2-0.2,0.3-0.3c0.1-0.1,0.2-0.2,0.5-0.3c0.3-0.1,0.9-0.2,1.9-0.2c0,0.3-0.1,0.6-0.2,0.8c-0.2,0.2-0.4,0.4-0.6,0.7H67
		c0,0.3-0.1,0.5-0.1,0.6c0,0.1-0.1,0.2-0.2,0.3c-0.1,0.1-0.2,0.2-0.2,0.3h4.5v10.7l0.6-7h39v4.2c0.5,0,0.9,0,1.3,0.1
		c0.4,0.1,0.8-0.1,1.2-0.4c0.1-0.3,0.2-0.8,0.5-1.5c0.2-0.7,0.5-1.5,0.9-2.3c0.4-0.8,0.8-1.4,1.2-2c0.4-0.6,0.9-0.9,1.3-0.9v2.4
		c0,0-0.1,0.3-0.2,0.9c-0.1,0.6-0.3,1.2-0.6,2.1c-0.2,0.8-0.5,1.8-0.8,2.9c-0.3,1.1-0.6,2.2-0.9,3.2c-0.3,1.1-0.6,2.1-0.8,3.1
		c-0.3,1-0.5,1.9-0.7,2.6c0,0.2-0.2,0.5-0.4,1c-0.2,0.5-0.5,1-0.8,1.6c-0.3,0.5-0.6,1.1-0.8,1.6c-0.3,0.5-0.5,0.8-0.7,0.9
		c-0.4,0.2-1,0.5-1.9,1c-0.9,0.5-1.8,1-2.8,1.5c-1,0.5-1.9,1-2.8,1.5c-0.9,0.5-1.5,0.8-1.8,1c-2.1,1.1-4.2,1.8-6.4,2.1
		c-2.2,0.3-4.5,0.5-6.7,0.5c-2.3,0-4.6,0-6.9-0.1c-2.3,0-4.5,0.1-6.7,0.5l-55.8,1.9H18c-0.2,0-0.3,0-0.6,0c-0.2,0-0.4,0-0.7,0h-0.4
		c-0.4,0-1-0.1-1.6-0.3c-0.6-0.2-1.3-0.5-1.9-0.8c-0.6-0.3-1.1-0.6-1.6-1c-0.4-0.4-0.7-0.7-0.7-1V50.4z M105.3,32
		c-0.4,0.1-0.8,0.2-1.2,0.5c-0.4,0.3-0.7,0.6-0.7,1.1h4.9c0.2,0,0.4-0.1,0.6-0.3c0.2-0.2,0.3-0.4,0.5-0.6c0.1-0.2,0.2-0.5,0.3-0.8
		c0.1-0.3,0.1-0.5,0.1-0.7h-6.1V32H105.3z M97.5,31.2v2.4c0.3,0,0.7-0.1,1.3-0.2c0.6-0.1,1.2-0.3,1.9-0.5c0.6-0.2,1.2-0.4,1.6-0.7
		c0.5-0.3,0.7-0.6,0.7-1H97.5z M102.6,33.6c0-0.1,0-0.1-0.1-0.1c-0.1,0-0.2,0-0.3,0c-0.1,0-0.2,0-0.3,0c-0.1,0-0.1,0.1-0.1,0.1
		c0.1,0.1,0.2,0.2,0.4,0.2C102.4,33.8,102.5,33.7,102.6,33.6z M91.3,31.2v2.3h5v-2.3H91.3z M85.5,32c-0.2,0.1-0.4,0.2-0.4,0.5
		C85,32.8,85,33,85,33.3v0.3h2.5c-0.2-0.1-0.4-0.3-0.8-0.5c-0.4-0.2-0.6-0.4-0.8-0.7h0.6c0.7,0,1.3,0.1,1.9,0.4
		c0.6,0.3,1.2,0.4,1.8,0.4v-2H85C85,31.6,85.2,31.8,85.5,32z M78.9,31.2v2.3h5v-2.3H78.9z M72.3,31.2v2.3h5.4v-2.3H72.3z M65.3,22.7
		c-0.2,0-0.3,0.1-0.3,0.4c0,0.3,0.1,0.4,0.3,0.4c0.2,0,0.3-0.1,0.3-0.4C65.6,22.8,65.5,22.7,65.3,22.7z M63.8,23.1
		c0.1-0.1,0-0.1-0.1-0.1c-0.2,0-0.4,0-0.6,0c-0.3,0-0.5,0-0.6,0c-0.2,0-0.2,0.1-0.1,0.1c0.1,0.1,0.4,0.2,0.8,0.2
		C63.4,23.3,63.6,23.2,63.8,23.1z M61.4,23.1c0.2-0.1,0-0.1-0.6-0.1c-0.6,0-1.3,0-2.1,0h-1.5c-0.5,0-0.8,0-1.1,0
		c-0.3,0-0.3,0.1-0.1,0.1c0.2,0.1,0.6,0.1,1.1,0.1c0.5,0,1,0,1.6,0c0.5,0,1.1,0,1.6,0C60.8,23.2,61.2,23.2,61.4,23.1z M54.9,23.1
		c0.1-0.1,0-0.2-0.2-0.2c-0.2,0-0.2,0.1-0.2,0.2c0.1,0.1,0.1,0.2,0.2,0.2C54.7,23.3,54.8,23.2,54.9,23.1z M20.3,53.1
		c0,0.2,0,0.5,0,0.9c0,0.3,0.2,0.5,0.6,0.5h0.2c0.7-0.1,1.5-0.2,2.6-0.3c1.1-0.1,2.1-0.3,3.1-0.4c1-0.1,1.8-0.2,2.5-0.3
		c0.7-0.1,1.1-0.1,1.1-0.1l0.8-0.4v-2c-1.8,0-3.6,0.1-5.4,0.4c-1.8,0.2-3.6,0.5-5.4,0.9c0,0.1,0,0.2,0,0.5
		C20.3,52.9,20.3,53.1,20.3,53.1z M15.7,51c0,0.2-0.1,0.4-0.1,0.8c0,0.4-0.1,0.7-0.1,1.2c0,0.4-0.1,0.8-0.1,1.2c0,0.4,0,0.6,0,0.8
		v0.4h1.1c0.6,0,1.1-0.1,1.5-0.3c0.4-0.2,0.6-0.6,0.6-1.3c0-0.2,0-0.4,0-0.7c0-0.3-0.2-0.4-0.4-0.5c-0.1,0.4-0.2,0.7-0.4,0.9
		c-0.2,0.2-0.4,0.3-0.8,0.3c-0.1,0-0.1,0-0.2,0c-0.1,0-0.1,0-0.2-0.1c0-0.1-0.1-0.2-0.1-0.5c0-0.3-0.1-0.6-0.1-0.9
		c0-0.3-0.1-0.6-0.2-0.9C15.9,51.2,15.8,51.1,15.7,51z M15.3,33.9l1.9,1.6c0-0.1,0.1-0.2,0.1-0.3c0-0.1,0-0.2,0-0.3
		c0-0.6-0.2-1.1-0.6-1.6c-0.4-0.5-0.9-0.7-1.4-0.7V33.9z M16.1,32c0.2,0.2,0.3,0.4,0.5,0.5c0.2,0.1,0.4,0.2,0.6,0.3V32H16.1z
		 M14.9,35.1c-0.1,0.1-0.1,0.2-0.2,0.4c-0.1,0.2-0.1,0.3-0.2,0.4c-0.1,0.1-0.1,0.3-0.1,0.4h2c-0.2-0.3-0.4-0.5-0.8-0.7
		C15.3,35.4,15.1,35.2,14.9,35.1z M14.5,30.8c0.1,0.1,0.2,0.1,0.4,0.2c0.2,0.1,0.3,0.1,0.4,0.1c0.1,0,0.2,0,0.4-0.1
		c0.2-0.1,0.3-0.2,0.4-0.2c0-0.1,0-0.2,0-0.2c0,0,0-0.1,0-0.1c0,0,0-0.1,0-0.1L14.5,30.8z M13.7,32.4c0.2,0.3,0.5,0.5,0.9,0.5
		c0-0.4-0.2-0.6-0.5-0.9L13.7,32.4z"/>
</g>
</svg>
